# xmcd
#
# Track frame offsets: 
#        150
#        22005
#        42733
#        63281
#        82192
#        101036
#        129414
#        143497
#        163696
#        178911
#
# Disc length: 2704 seconds
#
# Revision: 0
# Processed by: cddbd v1.5.2PL0 Copyright (c) Steve Scherf et al.
# Submitted via: ExactAudioCopy v0.99pb4
#
DISCID=8d0a8e0a
DTITLE=The Breeze Bors. - Lonesome Hours
DYEAR=2007
DGENRE=Blues
TTITLE0=call me the breeze
TTITLE1=lilly's daddy's cadillac
TTITLE2=every lonesome hour
TTITLE3=eightysixninety
TTITLE4=what's up man?
TTITLE5=how long....?
TTITLE6=answering bell
TTITLE7=not too big
TTITLE8=you do something to me
TTITLE9=valerie
EXTD=
EXTT0=
EXTT1=
EXTT2=
EXTT3=
EXTT4=
EXTT5=
EXTT6=
EXTT7=
EXTT8=
EXTT9=
PLAYORDER=
